<svg width="332" height="52" viewBox="0 0 332 52" fill="none" xmlns="http://www.w3.org/2000/svg">
<g filter="url(#filter0_d_1432_2)">
<rect x="6" y="4" width="320" height="40" rx="5" fill="white"/>
</g>
<path d="M28.7 33C28.42 33 28.1773 32.9347 27.972 32.804C27.7667 32.6547 27.6267 32.5053 27.552 32.356L21.14 22.78V32.244C21.14 32.4493 21.0653 32.6267 20.916 32.776C20.7667 32.9253 20.5893 33 20.384 33H16.716C16.5107 33 16.3333 32.9253 16.184 32.776C16.0347 32.6267 15.96 32.4493 15.96 32.244V14.156C15.96 13.9507 16.0347 13.7733 16.184 13.624C16.3333 13.4747 16.5107 13.4 16.716 13.4H19.628C19.908 13.4 20.1507 13.4747 20.356 13.624C20.5613 13.7547 20.7013 13.8947 20.776 14.044L27.188 23.62V14.156C27.188 13.9507 27.2627 13.7733 27.412 13.624C27.5613 13.4747 27.7387 13.4 27.944 13.4H31.612C31.8173 13.4 31.9947 13.4747 32.144 13.624C32.2933 13.7733 32.368 13.9507 32.368 14.156V32.244C32.368 32.4493 32.2933 32.6267 32.144 32.776C31.9947 32.9253 31.8173 33 31.612 33H28.7ZM54.0004 31.964C54.0751 32.1507 54.1124 32.2907 54.1124 32.384C54.1124 32.552 54.0471 32.7013 53.9164 32.832C53.8044 32.944 53.6644 33 53.4964 33H49.9684C49.6511 33 49.3991 32.9347 49.2124 32.804C49.0444 32.6547 48.9324 32.4867 48.8764 32.3L48.0924 29.976H40.6444L39.8604 32.3C39.8044 32.4867 39.6831 32.6547 39.4964 32.804C39.3284 32.9347 39.0857 33 38.7684 33H35.2404C35.0724 33 34.9231 32.944 34.7924 32.832C34.6804 32.7013 34.6244 32.552 34.6244 32.384C34.6244 32.2907 34.6617 32.1507 34.7364 31.964L40.8404 14.324C40.9337 14.0627 41.0831 13.848 41.2884 13.68C41.4937 13.4933 41.7644 13.4 42.1004 13.4H46.6364C46.9724 13.4 47.2431 13.4933 47.4484 13.68C47.6537 13.848 47.8031 14.0627 47.8964 14.324L54.0004 31.964ZM46.6364 25.636L44.3684 18.916L42.1004 25.636H46.6364ZM61.5541 22.976V32.244C61.5541 32.4493 61.4794 32.6267 61.3301 32.776C61.1807 32.9253 61.0034 33 60.7981 33H57.1301C56.9247 33 56.7474 32.9253 56.5981 32.776C56.4487 32.6267 56.3741 32.4493 56.3741 32.244V14.156C56.3741 13.9507 56.4487 13.7733 56.5981 13.624C56.7474 13.4747 56.9247 13.4 57.1301 13.4H60.3781C60.9007 13.4 61.3021 13.652 61.5821 14.156L66.1181 21.912L70.6541 14.156C70.9341 13.652 71.3354 13.4 71.8581 13.4H75.1061C75.3114 13.4 75.4887 13.4747 75.6381 13.624C75.7874 13.7733 75.8621 13.9507 75.8621 14.156V32.244C75.8621 32.4493 75.7874 32.6267 75.6381 32.776C75.4887 32.9253 75.3114 33 75.1061 33H71.4381C71.2327 33 71.0554 32.9253 70.9061 32.776C70.7567 32.6267 70.6821 32.4493 70.6821 32.244V22.976L68.0501 27.596C67.9194 27.8013 67.7701 27.9693 67.6021 28.1C67.4527 28.2307 67.2567 28.296 67.0141 28.296H65.2221C64.9794 28.296 64.7741 28.2307 64.6061 28.1C64.4567 27.9693 64.3167 27.8013 64.1861 27.596L61.5541 22.976ZM97.5043 31.964C97.579 32.1507 97.6163 32.2907 97.6163 32.384C97.6163 32.552 97.551 32.7013 97.4203 32.832C97.3083 32.944 97.1683 33 97.0003 33H93.4723C93.155 33 92.903 32.9347 92.7163 32.804C92.5483 32.6547 92.4363 32.4867 92.3803 32.3L91.5963 29.976H84.1483L83.3643 32.3C83.3083 32.4867 83.187 32.6547 83.0003 32.804C82.8323 32.9347 82.5896 33 82.2723 33H78.7443C78.5763 33 78.427 32.944 78.2963 32.832C78.1843 32.7013 78.1283 32.552 78.1283 32.384C78.1283 32.2907 78.1656 32.1507 78.2403 31.964L84.3443 14.324C84.4376 14.0627 84.587 13.848 84.7923 13.68C84.9976 13.4933 85.2683 13.4 85.6043 13.4H90.1403C90.4763 13.4 90.747 13.4933 90.9523 13.68C91.1576 13.848 91.307 14.0627 91.4003 14.324L97.5043 31.964ZM90.1403 25.636L87.8723 18.916L85.6043 25.636H90.1403ZM112.618 33C112.338 33 112.095 32.9347 111.89 32.804C111.685 32.6547 111.545 32.5053 111.47 32.356L105.058 22.78V32.244C105.058 32.4493 104.983 32.6267 104.834 32.776C104.685 32.9253 104.507 33 104.302 33H100.634C100.429 33 100.251 32.9253 100.102 32.776C99.9526 32.6267 99.878 32.4493 99.878 32.244V14.156C99.878 13.9507 99.9526 13.7733 100.102 13.624C100.251 13.4747 100.429 13.4 100.634 13.4H103.546C103.826 13.4 104.069 13.4747 104.274 13.624C104.479 13.7547 104.619 13.8947 104.694 14.044L111.106 23.62V14.156C111.106 13.9507 111.181 13.7733 111.33 13.624C111.479 13.4747 111.657 13.4 111.862 13.4H115.53C115.735 13.4 115.913 13.4747 116.062 13.624C116.211 13.7733 116.286 13.9507 116.286 14.156V32.244C116.286 32.4493 116.211 32.6267 116.062 32.776C115.913 32.9253 115.735 33 115.53 33H112.618ZM124.238 20.848C124.182 21.296 124.154 22.0147 124.154 23.004C124.154 24.1613 124.182 25.0107 124.238 25.552C124.312 26.504 124.63 27.288 125.19 27.904C125.75 28.5013 126.608 28.8 127.766 28.8C128.83 28.8 129.679 28.5573 130.314 28.072C130.967 27.568 131.294 26.784 131.294 25.72H128.942C128.736 25.72 128.559 25.6453 128.41 25.496C128.26 25.3467 128.186 25.1693 128.186 24.964V21.996C128.186 21.7907 128.26 21.6133 128.41 21.464C128.559 21.3147 128.736 21.24 128.942 21.24H135.718C135.923 21.24 136.1 21.3147 136.25 21.464C136.399 21.6133 136.474 21.7907 136.474 21.996V25.58C136.474 27.1293 136.091 28.492 135.326 29.668C134.56 30.8253 133.515 31.7213 132.19 32.356C130.883 32.972 129.408 33.28 127.766 33.28C126.03 33.28 124.518 32.944 123.23 32.272C121.942 31.5813 120.943 30.6667 120.234 29.528C119.524 28.3707 119.132 27.092 119.058 25.692C119.02 24.796 119.002 24.0587 119.002 23.48C119.002 22.7893 119.02 21.8653 119.058 20.708C119.114 19.308 119.496 18.0387 120.206 16.9C120.915 15.7427 121.914 14.828 123.202 14.156C124.508 13.4653 126.03 13.12 127.766 13.12C129.427 13.12 130.892 13.428 132.162 14.044C133.45 14.66 134.448 15.4347 135.158 16.368C135.886 17.3013 136.278 18.2067 136.334 19.084C136.352 19.252 136.296 19.4013 136.166 19.532C136.035 19.644 135.886 19.7 135.718 19.7H131.994C131.751 19.7 131.555 19.644 131.406 19.532C131.275 19.4013 131.098 19.2053 130.874 18.944C130.538 18.5333 130.136 18.2067 129.67 17.964C129.222 17.7213 128.587 17.6 127.766 17.6C125.656 17.6 124.48 18.6827 124.238 20.848ZM157.36 31.964C157.434 32.1507 157.472 32.2907 157.472 32.384C157.472 32.552 157.406 32.7013 157.276 32.832C157.164 32.944 157.024 33 156.856 33H153.328C153.01 33 152.758 32.9347 152.572 32.804C152.404 32.6547 152.292 32.4867 152.236 32.3L151.452 29.976H144.004L143.22 32.3C143.164 32.4867 143.042 32.6547 142.856 32.804C142.688 32.9347 142.445 33 142.128 33H138.6C138.432 33 138.282 32.944 138.152 32.832C138.04 32.7013 137.984 32.552 137.984 32.384C137.984 32.2907 138.021 32.1507 138.096 31.964L144.2 14.324C144.293 14.0627 144.442 13.848 144.648 13.68C144.853 13.4933 145.124 13.4 145.46 13.4H149.996C150.332 13.4 150.602 13.4933 150.808 13.68C151.013 13.848 151.162 14.0627 151.256 14.324L157.36 31.964ZM149.996 25.636L147.728 18.916L145.46 25.636H149.996ZM172.473 33C172.193 33 171.951 32.9347 171.745 32.804C171.54 32.6547 171.4 32.5053 171.325 32.356L164.913 22.78V32.244C164.913 32.4493 164.839 32.6267 164.689 32.776C164.54 32.9253 164.363 33 164.157 33H160.489C160.284 33 160.107 32.9253 159.957 32.776C159.808 32.6267 159.733 32.4493 159.733 32.244V14.156C159.733 13.9507 159.808 13.7733 159.957 13.624C160.107 13.4747 160.284 13.4 160.489 13.4H163.401C163.681 13.4 163.924 13.4747 164.129 13.624C164.335 13.7547 164.475 13.8947 164.549 14.044L170.961 23.62V14.156C170.961 13.9507 171.036 13.7733 171.185 13.624C171.335 13.4747 171.512 13.4 171.717 13.4H175.385C175.591 13.4 175.768 13.4747 175.917 13.624C176.067 13.7733 176.141 13.9507 176.141 14.156V32.244C176.141 32.4493 176.067 32.6267 175.917 32.776C175.768 32.9253 175.591 33 175.385 33H172.473ZM193.77 28.52C193.975 28.52 194.153 28.5947 194.302 28.744C194.451 28.8933 194.526 29.0707 194.526 29.276V32.244C194.526 32.4493 194.451 32.6267 194.302 32.776C194.153 32.9253 193.975 33 193.77 33H180.806C180.601 33 180.423 32.9253 180.274 32.776C180.125 32.6267 180.05 32.4493 180.05 32.244V14.156C180.05 13.9507 180.125 13.7733 180.274 13.624C180.423 13.4747 180.601 13.4 180.806 13.4H184.474C184.679 13.4 184.857 13.4747 185.006 13.624C185.155 13.7733 185.23 13.9507 185.23 14.156V28.52H193.77ZM197.677 33C197.472 33 197.294 32.9253 197.145 32.776C196.996 32.6267 196.921 32.4493 196.921 32.244V14.156C196.921 13.9507 196.996 13.7733 197.145 13.624C197.294 13.4747 197.472 13.4 197.677 13.4H201.345C201.55 13.4 201.728 13.4747 201.877 13.624C202.026 13.7733 202.101 13.9507 202.101 14.156V32.244C202.101 32.4493 202.026 32.6267 201.877 32.776C201.728 32.9253 201.55 33 201.345 33H197.677ZM222.63 32.076C222.686 32.1507 222.714 32.2533 222.714 32.384C222.714 32.552 222.649 32.7013 222.518 32.832C222.406 32.944 222.266 33 222.098 33H217.646C217.404 33 217.198 32.9533 217.03 32.86C216.862 32.748 216.685 32.58 216.498 32.356L211.206 25.692V32.244C211.206 32.4493 211.132 32.6267 210.982 32.776C210.833 32.9253 210.656 33 210.45 33H206.782C206.577 33 206.4 32.9253 206.25 32.776C206.101 32.6267 206.026 32.4493 206.026 32.244V14.156C206.026 13.9507 206.101 13.7733 206.25 13.624C206.4 13.4747 206.577 13.4 206.782 13.4H210.45C210.656 13.4 210.833 13.4747 210.982 13.624C211.132 13.7733 211.206 13.9507 211.206 14.156V20.064L216.134 14.016C216.284 13.8293 216.433 13.68 216.582 13.568C216.732 13.456 216.956 13.4 217.254 13.4H221.622C221.79 13.4 221.93 13.4653 222.042 13.596C222.173 13.708 222.238 13.848 222.238 14.016C222.238 14.128 222.21 14.2307 222.154 14.324L215.238 22.78L222.63 32.076ZM238.586 28.52C238.792 28.52 238.969 28.5947 239.118 28.744C239.268 28.8933 239.342 29.0707 239.342 29.276V32.244C239.342 32.4493 239.268 32.6267 239.118 32.776C238.969 32.9253 238.792 33 238.586 33H225.622C225.417 33 225.24 32.9253 225.09 32.776C224.941 32.6267 224.866 32.4493 224.866 32.244V14.156C224.866 13.9507 224.941 13.7733 225.09 13.624C225.24 13.4747 225.417 13.4 225.622 13.4H229.29C229.496 13.4 229.673 13.4747 229.822 13.624C229.972 13.7733 230.046 13.9507 230.046 14.156V28.52H238.586ZM259.461 31.964C259.536 32.1507 259.573 32.2907 259.573 32.384C259.573 32.552 259.508 32.7013 259.377 32.832C259.265 32.944 259.125 33 258.957 33H255.429C255.112 33 254.86 32.9347 254.673 32.804C254.505 32.6547 254.393 32.4867 254.337 32.3L253.553 29.976H246.105L245.321 32.3C245.265 32.4867 245.144 32.6547 244.957 32.804C244.789 32.9347 244.547 33 244.229 33H240.701C240.533 33 240.384 32.944 240.253 32.832C240.141 32.7013 240.085 32.552 240.085 32.384C240.085 32.2907 240.123 32.1507 240.197 31.964L246.301 14.324C246.395 14.0627 246.544 13.848 246.749 13.68C246.955 13.4933 247.225 13.4 247.561 13.4H252.097C252.433 13.4 252.704 13.4933 252.909 13.68C253.115 13.848 253.264 14.0627 253.357 14.324L259.461 31.964ZM252.097 25.636L249.829 18.916L247.561 25.636H252.097ZM270.179 13.4C272.68 13.4 274.622 13.9413 276.003 15.024C277.384 16.088 278.075 17.684 278.075 19.812C278.075 22.5187 276.964 24.3853 274.743 25.412L278.215 32.076C278.271 32.188 278.299 32.2907 278.299 32.384C278.299 32.552 278.234 32.7013 278.103 32.832C277.991 32.944 277.851 33 277.683 33H273.875C273.539 33 273.287 32.9347 273.119 32.804C272.951 32.6547 272.811 32.468 272.699 32.244L269.591 26.252H267.015V32.244C267.015 32.4493 266.94 32.6267 266.791 32.776C266.642 32.9253 266.464 33 266.259 33H262.591C262.386 33 262.208 32.9253 262.059 32.776C261.91 32.6267 261.835 32.4493 261.835 32.244V14.156C261.835 13.9507 261.91 13.7733 262.059 13.624C262.208 13.4747 262.386 13.4 262.591 13.4H270.179ZM270.179 21.884C271.99 21.884 272.895 21.1933 272.895 19.812C272.895 18.4307 271.99 17.74 270.179 17.74H267.015V21.884H270.179ZM288.976 28.52H296.004C296.209 28.52 296.386 28.5947 296.536 28.744C296.685 28.8933 296.76 29.0707 296.76 29.276V32.244C296.76 32.4493 296.685 32.6267 296.536 32.776C296.386 32.9253 296.209 33 296.004 33H281.22C281.014 33 280.837 32.9253 280.688 32.776C280.538 32.6267 280.464 32.4493 280.464 32.244V29.836C280.464 29.1267 280.734 28.576 281.276 28.184L289.648 22.192C290.245 21.744 290.637 21.3333 290.824 20.96C291.029 20.568 291.132 20.148 291.132 19.7C291.132 19.2333 290.964 18.7667 290.628 18.3C290.31 17.8333 289.694 17.6 288.78 17.6C288.145 17.6 287.641 17.7307 287.268 17.992C286.913 18.2347 286.68 18.468 286.568 18.692C286.474 18.8973 286.344 19.224 286.176 19.672C286.082 19.9147 285.942 20.0827 285.756 20.176C285.569 20.2693 285.336 20.316 285.056 20.316H281.612C281.444 20.316 281.294 20.26 281.164 20.148C281.052 20.0173 280.996 19.868 280.996 19.7C281.033 18.5987 281.341 17.5533 281.92 16.564C282.498 15.556 283.366 14.7347 284.524 14.1C285.681 13.4467 287.09 13.12 288.752 13.12C290.338 13.12 291.701 13.428 292.84 14.044C293.978 14.6413 294.837 15.444 295.416 16.452C296.013 17.4413 296.312 18.524 296.312 19.7C296.312 20.8387 296.05 21.8747 295.528 22.808C295.024 23.7227 294.146 24.6373 292.896 25.552L288.976 28.52ZM309.192 33C308.987 33 308.81 32.9253 308.66 32.776C308.511 32.6267 308.436 32.4493 308.436 32.244V29.388H299.616C299.411 29.388 299.234 29.3133 299.084 29.164C298.935 29.0147 298.86 28.8373 298.86 28.632V25.664C298.86 25.1787 298.982 24.7773 299.224 24.46L307.596 13.904C307.764 13.6987 307.914 13.568 308.044 13.512C308.194 13.4373 308.39 13.4 308.632 13.4H312.86C313.066 13.4 313.243 13.4747 313.392 13.624C313.542 13.7733 313.616 13.9507 313.616 14.156V24.908H316.024C316.23 24.908 316.407 24.9827 316.556 25.132C316.706 25.2813 316.78 25.4587 316.78 25.664V28.632C316.78 28.8373 316.706 29.0147 316.556 29.164C316.407 29.3133 316.23 29.388 316.024 29.388H313.616V32.244C313.616 32.4493 313.542 32.6267 313.392 32.776C313.243 32.9253 313.066 33 312.86 33H309.192ZM308.576 19.756L304.488 24.908H308.576V19.756Z" fill="#295091"/>
<defs>
<filter id="filter0_d_1432_2" x="0" y="0" width="332" height="52" filterUnits="userSpaceOnUse" color-interpolation-filters="sRGB">
<feFlood flood-opacity="0" result="BackgroundImageFix"/>
<feColorMatrix in="SourceAlpha" type="matrix" values="0 0 0 0 0 0 0 0 0 0 0 0 0 0 0 0 0 0 127 0" result="hardAlpha"/>
<feOffset dy="2"/>
<feGaussianBlur stdDeviation="3"/>
<feColorMatrix type="matrix" values="0 0 0 0 0.791667 0 0 0 0 0.791667 0 0 0 0 0.791667 0 0 0 0.25 0"/>
<feBlend mode="normal" in2="BackgroundImageFix" result="effect1_dropShadow_1432_2"/>
<feBlend mode="normal" in="SourceGraphic" in2="effect1_dropShadow_1432_2" result="shape"/>
</filter>
</defs>
</svg>
