<svg width="32" height="32" fill="none" xmlns="http://www.w3.org/2000/svg"><path fill-rule="evenodd" clip-rule="evenodd" d="M16.001 0C7.163 0 0 7.164 0 16.001 0 24.837 7.163 32 16.001 32 24.837 32 32 24.837 32 16.001 32 7.164 24.837 0 16.001 0zm.022 4.866c3.117.008 5.617 2.558 5.601 5.708-.014 3.079-2.557 5.574-5.668 5.563-3.08-.01-5.606-2.564-5.587-5.648a5.643 5.643 0 015.654-5.623zm6.313 13.485c-.69.708-1.519 1.22-2.441 1.577-.87.337-1.824.507-2.769.62.142.156.21.232.3.322 1.281 1.288 2.57 2.57 3.846 3.863.435.44.527.987.287 1.498-.262.56-.85.929-1.425.889-.364-.026-.649-.206-.901-.46-.967-.974-1.953-1.931-2.901-2.922-.277-.29-.41-.234-.653.016-.975 1-1.96 1.99-2.957 2.97-.447.44-.978.52-1.497.268-.55-.267-.902-.828-.875-1.394.02-.382.208-.675.47-.936 1.27-1.267 2.534-2.538 3.8-3.806.085-.085.163-.175.284-.306-1.726-.179-3.283-.604-4.616-1.646-.165-.13-.336-.256-.486-.4-.584-.56-.643-1.202-.18-1.864.394-.566 1.056-.716 1.745-.391.134.062.26.142.384.225 2.482 1.707 5.895 1.754 8.387.077.24-.195.518-.34.817-.422.596-.154 1.15.065 1.469.587.365.594.36 1.174-.088 1.635z" fill="#295091"/><path fill-rule="evenodd" clip-rule="evenodd" d="M15.89 12.754a2.714 2.714 0 002.713-2.735 2.718 2.718 0 00-2.726-2.725 2.723 2.723 0 00-2.733 2.758 2.72 2.72 0 002.747 2.702h-.001z" fill="#295091"/></svg>