<svg width="32" height="33" fill="none" xmlns="http://www.w3.org/2000/svg"><mask id="a" maskUnits="userSpaceOnUse" x="0" y="0" width="32" height="33"><path d="M.048.224h31.73v31.972H.048V.224z" fill="#fff"/></mask><g mask="url(#a)"><path fill-rule="evenodd" clip-rule="evenodd" d="M15.887.224C7.128.224 0 7.396 0 16.209c0 8.815 7.128 15.987 15.887 15.987 8.763 0 15.891-7.172 15.891-15.987 0-8.813-7.128-15.985-15.89-15.985h-.001zm7.091 12.328c.006.157.01.317.01.478 0 4.86-3.678 10.466-10.406 10.466a10.28 10.28 0 01-5.607-1.653 7.306 7.306 0 005.415-1.522 3.664 3.664 0 01-3.415-2.557 3.593 3.593 0 001.65-.063 3.674 3.674 0 01-2.935-3.605c0-.016 0-.032.004-.048.49.277 1.056.44 1.656.46a3.68 3.68 0 01-1.628-3.063c0-.673.181-1.304.494-1.848a10.363 10.363 0 007.537 3.844 3.719 3.719 0 01-.094-.839c0-2.03 1.638-3.678 3.657-3.678a3.64 3.64 0 012.668 1.16 7.204 7.204 0 002.326-.893 3.69 3.69 0 01-1.61 2.037 7.213 7.213 0 002.1-.578 7.464 7.464 0 01-1.822 1.902z" fill="#295091"/></g></svg>